<?xml version="1.0" encoding="UTF-8"?>
<svg id="_레이어_1" data-name="레이어_1" xmlns="http://www.w3.org/2000/svg" version="1.1" viewBox="0 0 66.89 168">
  <!-- Generator: Adobe Illustrator 29.8.3, SVG Export Plug-In . SVG Version: 2.1.1 Build 3)  -->
  <path d="M63.55,1.35c-12.28,6.71-26.15,13.88-38.7,20.26-10.1,4.75-18.72,14.31-18.82,25.83,0,0,.09,7.28.09,7.28.1,19.42.13,38.84-.07,58.26,0,3.91-.45,9.97.82,13.74,1.7,6.53,5.94,12.24,11.7,15.78,6.14,3.6,13.22,5.88,19.48,9.28,8.69,4.4,17.21,9.08,25.52,14.13,0,0-.24.44-.24.44-8.8-4.1-17.59-8.18-26.49-11.94-4.45-1.88-8.91-3.72-13.42-5.3-4.71-1.63-9.4-4.14-13.17-7.76-5.7-5.51-9.12-13.21-9.31-21.17,0,0-.08-7.28-.08-7.28-.13-9.69-.1-19.37-.16-29.06-.03-9.69.06-19.37.09-29.06,0,0,.09-7.27.09-7.27.13-5.48,1.89-10.48,4.7-15.03,4.02-6.58,10.76-11.39,17.64-14.39,0,0,13.31-5.85,13.31-5.85,8.91-3.84,17.81-7.7,26.82-11.33,0,0,.22.45.22.45h0Z"/>
</svg>