<?xml version="1.0" encoding="UTF-8"?>
<svg id="_레이어_1" data-name="레이어_1" xmlns="http://www.w3.org/2000/svg" version="1.1" viewBox="0 0 66.89 168">
  <!-- Generator: Adobe Illustrator 29.8.3, SVG Export Plug-In . SVG Version: 2.1.1 Build 3)  -->
  <path d="M63.55,1.35c-12.38,6.5-26.31,13.55-38.91,19.83-10.33,4.76-19.16,14.51-19.28,26.27,0,0,.06,7.28.06,7.28.07,17.18.08,41.31-.05,58.24,0,4.01-.41,10.01.89,13.92,1.76,6.66,6.14,12.47,12.04,16.04,6.2,3.58,13.27,5.79,19.6,9.15,8.73,4.31,17.28,8.91,25.66,13.82,0,0-.24.44-.24.44-8.72-4.23-17.48-8.4-26.35-12.25-4.43-1.92-8.89-3.79-13.41-5.42-9.59-3.14-18.1-10.82-20.78-20.81-1.45-4.14-1.25-10.53-1.27-14.96-.17-16.82-.08-41.08-.05-58.14,0,0,.06-7.27.06-7.27.25-13.25,10.19-24.06,21.88-28.98C36.26,12.78,50.42,6.34,63.34.9c0,0,.22.45.22.45h0Z"/>
</svg>