<?xml version="1.0" encoding="UTF-8"?>
<svg id="_레이어_1" data-name="레이어_1" xmlns="http://www.w3.org/2000/svg" version="1.1" viewBox="0 0 66.89 168">
  <!-- Generator: Adobe Illustrator 29.8.3, SVG Export Plug-In . SVG Version: 2.1.1 Build 3)  -->
  <path d="M63.55,1.35c-12.46,6.35-26.41,13.34-39.04,19.55-8.48,3.98-15.83,10.73-18.5,19.86-1.44,3.88-1.01,9.91-1.01,13.97,0,0,.05,29.11.05,29.11l-.08,29.11s-.05,7.27-.05,7.27c.08,9.23,5.26,18.26,13.23,22.97,6.23,3.57,13.31,5.73,19.67,9.08,4.37,2.13,8.69,4.34,12.99,6.61,4.3,2.26,8.55,4.6,12.76,7.02,0,0-.24.44-.24.44-8.68-4.31-17.39-8.57-26.26-12.44-4.43-1.94-8.88-3.84-13.39-5.49-4.63-1.67-9.17-4.15-12.81-7.69-5.47-5.39-8.72-12.81-8.89-20.53,0,0-.05-7.28-.05-7.28,0,0-.08-29.07-.08-29.07l.05-29.07s.05-7.27.05-7.27c.09-5.21,1.79-10.13,4.47-14.5,3.9-6.46,10.37-11.17,17.12-14.19,0,0,13.23-6.03,13.23-6.03,8.86-3.95,17.67-7.99,26.57-11.86,0,0,.22.45.22.45h0Z"/>
</svg>