<svg width="1158" height="136" viewBox="0 0 1158 136" fill="none" xmlns="http://www.w3.org/2000/svg">
<g opacity="0.5">
<path fill-rule="evenodd" clip-rule="evenodd" d="M374.415 34.9811C375.724 33.6729 377.845 33.673 379.153 34.9812L439.453 95.2816C440.761 96.5898 440.761 98.7108 439.453 100.019C438.145 101.327 436.023 101.327 434.715 100.019L374.415 39.7184C373.107 38.4102 373.107 36.2892 374.415 34.9811Z" fill="white"/>
<path fill-rule="evenodd" clip-rule="evenodd" d="M439.453 34.9811C438.145 33.6729 436.023 33.673 434.715 34.9812L374.415 95.2816C373.107 96.5898 373.107 98.7108 374.415 100.019C375.724 101.327 377.845 101.327 379.153 100.019L439.453 39.7184C440.761 38.4102 440.761 36.2892 439.453 34.9811Z" fill="white"/>
</g>
<path d="M512.544 28.1386H477.434V108.35H502.584V82.8566H512.56C519.054 82.8566 524.58 81.6545 529.155 79.2347C533.729 76.815 537.179 73.5522 539.521 69.4308C541.862 65.3094 543.033 60.7196 543.033 55.6615C543.033 47.2782 540.41 40.5965 535.165 35.6009C529.92 30.6209 522.379 28.123 512.56 28.123L512.544 28.1386ZM509.703 63.0301H502.568V48.3086H509.703C514.917 48.3086 517.524 50.7595 517.524 55.6771C517.524 60.5947 514.917 63.0457 509.703 63.0457V63.0301ZM716.772 28.1386H688.344L665.348 61.9061V28.1386H640.198V108.35H665.348V73.5678L688.687 108.35H718.599L689.14 66.5427L716.772 28.1386ZM725.718 108.35H779.187V88.2893H750.868V76.9555H775.783V58.0345H750.868V48.1837H779.187V28.123H725.718V108.334V108.35ZM839.212 77.6424C844.801 75.8314 849.079 72.8497 852.076 68.697C855.058 64.5444 856.557 59.7829 856.557 54.4282C856.557 49.4482 855.401 44.9677 853.106 41.0024C850.796 37.0371 847.346 33.8993 842.741 31.6044C838.135 29.2939 832.578 28.1543 826.083 28.1543H788.71V108.366H813.859V79.5938H813.969L829.034 108.366H856.666L839.228 77.658L839.212 77.6424ZM829.252 61.1567C828.05 62.2495 826.224 62.7959 823.82 62.7959H813.844V49.1984H823.82C826.161 49.1984 827.957 49.8073 829.205 51.0093C830.454 52.2114 831.079 53.8818 831.079 55.9894C831.079 58.3311 830.47 60.0483 829.268 61.1411L829.252 61.1567Z" fill="white"/>
<path d="M914.99 28.0451H889.856V108.21H939.219V89.1793H914.99V28.0295V28.0451ZM992.657 73.2245C992.657 76.9244 991.783 79.8437 990.05 81.9981C988.317 84.1524 985.632 85.2296 982.01 85.2296C978.388 85.2296 975.765 84.1524 974.142 81.9981C972.518 79.8437 971.706 76.9244 971.706 73.2245V51.509H946.681V73.2245C946.681 80.9209 948.149 87.462 951.099 92.8167C954.05 98.1715 958.14 102.215 963.386 104.931C968.631 107.648 974.657 109.006 981.448 109.006C988.239 109.006 994.39 107.648 999.901 104.931C1005.41 102.215 1009.75 98.1558 1012.92 92.7543C1016.09 87.3528 1017.68 80.8428 1017.68 73.2245V51.509H992.657V73.2245ZM1053.68 28.0451H1028.55V108.21H1077.91V89.1793H1053.68V28.0295V28.0451ZM1131.33 73.2245C1131.33 76.9244 1130.46 79.8437 1128.73 81.9981C1126.99 84.1524 1124.31 85.2296 1120.69 85.2296C1117.06 85.2296 1114.44 84.1524 1112.82 81.9981C1111.19 79.8437 1110.38 76.9244 1110.38 73.2245V51.509H1085.36V73.2245C1085.36 80.9209 1086.82 87.462 1089.78 92.8167C1092.73 98.1715 1096.82 102.215 1102.06 104.931C1107.31 107.648 1113.33 109.006 1120.12 109.006C1126.91 109.006 1133.07 107.648 1138.58 104.931C1144.09 102.215 1148.43 98.1558 1151.6 92.7543C1154.77 87.3528 1156.36 80.8428 1156.36 73.2245V51.509H1131.33V73.2245ZM1019.17 27.0616C1019.17 27.0616 999.026 23.8457 992.751 41.6114C992.751 41.6114 1009.5 38.5047 1018.73 47.4501C1018.73 47.4501 1015.56 38.3018 1005.96 36.3192C1005.96 36.3192 1009.16 29.2472 1019.17 27.0616ZM959.405 46.9661C965.04 46.9661 969.599 42.4076 969.599 36.7719C969.599 31.1362 965.04 26.5776 959.405 26.5776C953.769 26.5776 949.21 31.1362 949.21 36.7719C949.21 42.4076 953.769 46.9661 959.405 46.9661ZM1144.67 36.3192C1144.67 36.3192 1147.87 29.2472 1157.87 27.0616C1157.87 27.0616 1137.73 23.8457 1131.46 41.6114C1131.46 41.6114 1148.21 38.5047 1157.44 47.4501C1157.44 47.4501 1154.27 38.3018 1144.67 36.3192ZM1098.11 46.9661C1103.75 46.9661 1108.31 42.4076 1108.31 36.7719C1108.31 31.1362 1103.75 26.5776 1098.11 26.5776C1092.48 26.5776 1087.92 31.1362 1087.92 36.7719C1087.92 42.4076 1092.48 46.9661 1098.11 46.9661Z" fill="white"/>
<path d="M589.992 26C566.918 26 548.216 44.7024 548.216 67.7761C548.216 90.8497 566.918 109.552 589.992 109.552C613.066 109.552 631.768 90.8497 631.768 67.7761C631.768 44.7024 613.066 26 589.992 26ZM611.707 46.7163C606.181 47.9184 604.417 51.8212 604.417 51.8212C609.725 52.914 611.473 57.9565 611.473 57.9565C606.384 53.0233 597.126 54.7406 597.126 54.7406C600.592 44.9366 611.723 46.7163 611.723 46.7163H611.707ZM574.958 46.4509C577.753 46.4509 580.032 49.0268 580.032 52.1959C580.032 55.365 577.768 57.9409 574.958 57.9409C572.148 57.9409 569.884 55.365 569.884 52.1959C569.884 49.0268 572.148 46.4509 574.958 46.4509ZM613.112 76.9087C613.112 83.5123 611.02 88.5236 606.821 91.9737C602.621 95.4238 596.986 97.1411 589.914 97.1411C582.842 97.1411 577.3 95.4238 573.132 91.9737C568.963 88.5236 566.871 83.5123 566.871 76.9087V65.1533H578.471V76.9087C578.471 80.7804 579.47 83.6528 581.484 85.495C583.482 87.3371 586.292 88.2582 589.914 88.2582C593.536 88.2582 596.471 87.3371 598.484 85.495C600.498 83.6528 601.513 80.7804 601.513 76.9087V65.1533H613.112V76.9087Z" fill="white"/>
<path d="M142.323 28.009H130.561L94.7139 108.042H124.215C128.574 108.042 133.349 107.228 136.293 103.998C138.626 101.437 140.683 96.7332 140.683 91.0831C140.683 91.0831 136.692 99.7203 129.709 97.2473C121.766 94.435 126.294 85.4898 128.362 81.9871C132.02 75.7937 142.323 53.5384 142.323 53.5384C142.323 53.5384 152.626 75.7937 156.284 81.9871C158.352 85.4898 162.88 94.435 154.938 97.2473C147.954 99.7203 143.964 91.0831 143.964 91.0831C143.964 96.7332 146.02 101.437 148.353 103.998C151.297 107.228 156.072 108.042 160.431 108.042H189.932L154.085 28.009H142.323Z" fill="white"/>
<path d="M231.59 68.0258H220.669V45.9088H230.61C232.291 45.9088 244.473 45.9088 244.473 57.1027C244.473 69.1778 231.59 68.0258 231.59 68.0258ZM231.451 28.0095H200.029V108.042H220.669V84.0433H228.79C228.79 84.0433 263.476 86.0197 263.476 57.2433C263.476 27.2711 231.451 28.0095 231.451 28.0095Z" fill="white"/>
<path d="M296.239 90.3724V28.009H275.109V108.042H338.323V90.3724H296.239Z" fill="white"/>
<path d="M54.7564 86.3997L35.9434 53.7951L37.2622 51.1306L57.5042 86.3997H54.7564ZM38.0535 86.3771C36.0528 86.3771 33.9021 85.6453 32.8927 83.8342C31.4478 81.2367 31.8847 79.5356 31.8847 79.5356C32.0159 79.7621 34.8485 82.0137 36.9108 80.7357C39.1514 79.3507 39.1861 77.4479 38.0905 74.6035C36.8463 71.3703 30.697 65.3532 30.697 65.3532C30.697 65.3532 24.5478 71.3703 23.3036 74.6035C22.2079 77.4479 22.2427 79.3507 24.4833 80.7357C26.5456 82.0137 29.3804 79.7621 29.5101 79.5356C29.5101 79.5356 29.9463 81.2367 28.5036 83.8342C27.492 85.6453 25.3383 86.3771 23.3427 86.3771L8.58621 86.3749L30.697 47.8559L52.81 86.3771H38.0535ZM55.3499 27.7283H9.14056C4.09202 27.7283 0 31.8412 0 36.9139V103.222C0 108.295 4.09202 112.407 9.14056 112.407H55.3499C60.3977 112.407 64.4904 108.295 64.4904 103.222V36.9139C64.4904 31.8412 60.3977 27.7283 55.3499 27.7283Z" fill="#CBA65F"/>
<path d="M99.5451 67.0346L72.4437 127.491C70.3705 132.116 64.9582 134.176 60.3554 132.093L26.7163 116.864H54.5858C62.4053 116.864 68.7669 110.47 68.7669 102.612V43.0265L94.9661 54.8867C99.5683 56.9708 101.618 62.4091 99.5451 67.0346Z" fill="#957D4A"/>
<path d="M95.7328 128.319L93.4459 122.13L91.2038 128.319H95.7328ZM101.904 134.919H98.2574L96.8082 131.129H90.1734L88.8031 134.919H85.248L91.7132 118.238H95.2574L101.904 134.919Z" fill="#CDCCCC"/>
<path d="M115.299 128.786L118.548 129.821C118.05 131.642 117.222 132.994 116.063 133.878C114.904 134.762 113.434 135.204 111.653 135.204C109.449 135.204 107.637 134.447 106.218 132.933C104.799 131.419 104.09 129.351 104.089 126.727C104.089 123.95 104.803 121.794 106.229 120.258C107.656 118.722 109.532 117.954 111.857 117.954C113.887 117.954 115.536 118.557 116.805 119.763C117.56 120.476 118.126 121.501 118.503 122.835L115.186 123.632C114.99 122.767 114.58 122.084 113.957 121.583C113.334 121.083 112.577 120.833 111.687 120.833C110.456 120.833 109.458 121.276 108.692 122.164C107.926 123.052 107.543 124.49 107.543 126.476C107.543 128.585 107.92 130.087 108.675 130.982C109.429 131.877 110.411 132.324 111.619 132.324C112.509 132.324 113.276 132.04 113.918 131.472C114.559 130.903 115.019 130.007 115.299 128.786Z" fill="#CDCCCC"/>
<path d="M122.421 134.919V118.239H134.729V121.061H125.773V124.758H134.106V127.568H125.773V132.109H135.046V134.919H122.421Z" fill="#CDCCCC"/>
<path d="M149.676 121.06V125.793H151.51C152.831 125.793 153.715 125.706 154.159 125.532C154.605 125.357 154.955 125.084 155.207 124.713C155.46 124.341 155.586 123.909 155.586 123.415C155.586 122.808 155.409 122.308 155.054 121.913C154.699 121.519 154.25 121.273 153.707 121.174C153.307 121.098 152.503 121.061 151.295 121.06H149.676ZM146.325 134.918V118.238H151.703C153.741 118.238 155.069 118.322 155.688 118.489C156.639 118.739 157.436 119.283 158.078 120.121C158.719 120.96 159.04 122.043 159.04 123.37C159.04 124.394 158.855 125.255 158.485 125.953C158.115 126.651 157.645 127.199 157.075 127.597C156.505 127.995 155.926 128.259 155.337 128.388C154.537 128.547 153.379 128.627 151.862 128.627H149.676V134.918H146.325Z" fill="#CDCCCC"/>
<path d="M165.563 126.567C165.563 128.456 165.997 129.888 166.865 130.862C167.733 131.837 168.835 132.324 170.17 132.324C171.506 132.324 172.603 131.841 173.46 130.873C174.317 129.906 174.745 128.456 174.745 126.522C174.745 124.609 174.328 123.183 173.494 122.244C172.66 121.303 171.552 120.832 170.17 120.832C168.789 120.832 167.676 121.308 166.831 122.26C165.985 123.212 165.563 124.648 165.563 126.567ZM162.109 126.68C162.109 124.981 162.362 123.555 162.868 122.402C163.244 121.554 163.768 120.78 164.413 120.116C165.066 119.441 165.782 118.94 166.559 118.613C167.593 118.174 168.785 117.954 170.136 117.954C172.582 117.954 174.539 118.716 176.007 120.24C177.475 121.765 178.209 123.885 178.21 126.601C178.21 129.294 177.481 131.401 176.025 132.922C174.567 134.442 172.62 135.203 170.182 135.203C167.713 135.203 165.751 134.446 164.294 132.933C162.837 131.42 162.109 129.336 162.109 126.68Z" fill="#CDCCCC"/>
<path d="M181.867 134.919V118.239H185.219V125.646L191.99 118.239H196.495L190.246 124.736L196.835 134.919H192.499L187.936 127.091L185.219 129.878V134.919H181.867Z" fill="#CDCCCC"/>
<path d="M199.564 134.919V118.239H211.872V121.061H202.916V124.758H211.249V127.568H202.916V132.109H212.189V134.919H199.564Z" fill="#CDCCCC"/>
<path d="M219.391 125.293H221.871C223.478 125.293 224.482 125.225 224.882 125.088C225.282 124.952 225.596 124.717 225.822 124.383C226.049 124.049 226.162 123.632 226.162 123.131C226.162 122.57 226.013 122.117 225.715 121.771C225.416 121.427 224.995 121.209 224.452 121.117C224.18 121.079 223.365 121.061 222.006 121.061H219.391V125.293ZM216.04 134.919V118.238H223.093C224.867 118.238 226.156 118.388 226.96 118.688C227.764 118.988 228.407 119.52 228.89 120.286C229.373 121.053 229.615 121.929 229.615 122.915C229.615 124.167 229.249 125.2 228.517 126.015C227.784 126.831 226.69 127.345 225.234 127.557C225.958 127.982 226.556 128.449 227.028 128.956C227.499 129.465 228.135 130.367 228.936 131.665L230.963 134.919H226.955L224.532 131.289C223.671 129.992 223.082 129.175 222.765 128.837C222.448 128.5 222.112 128.268 221.758 128.143C221.403 128.018 220.84 127.955 220.07 127.955H219.391V134.919H216.04Z" fill="#CDCCCC"/>
<path d="M241.302 134.919V118.375H244.654V132.109H252.987V134.919H241.302Z" fill="#CDCCCC"/>
<path d="M256.373 134.919V118.239H268.68V121.061H259.724V124.758H268.057V127.568H259.724V132.109H268.997V134.919H256.373Z" fill="#CDCCCC"/>
<path d="M281.634 128.319L279.347 122.13L277.105 128.319H281.634ZM287.805 134.919H284.158L282.709 131.129H276.074L274.704 134.919H271.149L277.614 118.238H281.158L287.805 134.919Z" fill="#CDCCCC"/>
<path d="M298.301 128.786V125.976H305.525V132.621C304.822 133.303 303.805 133.904 302.473 134.424C301.141 134.943 299.792 135.203 298.425 135.204C296.689 135.204 295.176 134.838 293.885 134.105C292.594 133.373 291.624 132.326 290.975 130.965C290.326 129.603 290.001 128.123 290.001 126.522C290.001 124.785 290.364 123.242 291.088 121.891C291.813 120.541 292.874 119.506 294.27 118.785C295.334 118.231 296.659 117.954 298.244 117.954C300.305 117.954 301.914 118.388 303.073 119.257C304.232 120.126 304.977 121.326 305.309 122.858L301.98 123.484C301.746 122.665 301.307 122.018 300.662 121.544C300.016 121.07 299.21 120.833 298.244 120.833C296.779 120.833 295.615 121.299 294.751 122.232C293.887 123.165 293.455 124.55 293.455 126.385C293.455 128.365 293.893 129.85 294.768 130.839C295.643 131.83 296.791 132.325 298.21 132.324C298.934 132.32 299.65 132.179 300.322 131.909C301.028 131.633 301.633 131.297 302.139 130.902V128.786H298.301Z" fill="#CDCCCC"/>
<path d="M309.591 118.238H312.942V127.272C312.942 128.706 312.984 129.635 313.067 130.06C313.21 130.743 313.551 131.291 314.092 131.704C314.631 132.118 315.369 132.325 316.305 132.325C317.256 132.325 317.973 132.129 318.456 131.738C318.939 131.348 319.23 130.868 319.328 130.299C319.426 129.73 319.475 128.785 319.476 127.466V118.238H322.827V126.999C322.827 129.002 322.736 130.417 322.555 131.243C322.374 132.07 322.04 132.768 321.553 133.337C321.066 133.906 320.415 134.36 319.6 134.697C318.785 135.034 317.721 135.203 316.407 135.203C314.822 135.203 313.62 135.019 312.801 134.651C311.982 134.284 311.334 133.806 310.859 133.217C310.383 132.63 310.07 132.014 309.919 131.368C309.7 130.413 309.59 129.002 309.591 127.136V118.238Z" fill="#CDCCCC"/>
<path d="M327.356 134.919V118.239H339.663V121.061H330.707V124.758H339.041V127.568H330.707V132.109H339.981V134.919H327.356Z" fill="#CDCCCC"/>
</svg>
