<svg width="63" height="166" viewBox="0 0 63 166" fill="none" xmlns="http://www.w3.org/2000/svg">
<path d="M62 1C50 7 35 14 23 20C14 24 7 31 4 40C3 44 3 50 3 54V112L3 119C3 129 8 138 16 142C23 146 30 148 36 151C45 156 53 161 62 165Z" fill="url(#bg_gradient)"/>
<path d="M61.7 0.530098C49.24 6.8801 35.29 13.8701 22.66 20.0801C14.18 24.0601 6.83 30.8101 4.16 39.9401C2.72 43.8201 3.15 49.8501 3.15 53.9101L3.2 83.0201L3.12 112.13L3.07 119.4C3.15 128.63 8.33 137.66 16.3 142.37C22.53 145.94 29.61 148.1 35.97 151.45C40.34 153.58 44.66 155.79 48.96 158.06C53.26 160.32 57.51 162.66 61.72 165.08L61.48 165.52C52.8 161.21 44.09 156.95 35.22 153.08C30.79 151.14 26.34 149.24 21.83 147.59C17.2 145.92 12.66 143.44 9.02 139.9C3.55 134.51 0.3 127.09 0.13 119.37L0.0799999 112.09L0 83.0201L0.05 53.9501L0.1 46.6801C0.19 41.4701 1.89 36.5501 4.57 32.1801C8.47 25.7201 14.94 21.0101 21.69 17.9901L34.92 11.9601C43.78 8.0101 52.59 3.9701 61.49 0.100098L61.71 0.550098L61.7 0.530098Z" fill="url(#border_gradient)"/>
<path d="M26.6488 83.5199C26.3443 83.3229 26.3443 82.8773 26.6488 82.6803L41.7182 72.9295C42.1239 72.667 42.6475 73.0797 42.4947 73.5381C41.7697 75.7118 40.5208 79.9183 40.5208 83.1001C40.5208 86.2819 41.7697 90.4884 42.4947 92.6621C42.6475 93.1205 42.1239 93.5332 41.7182 93.2707L26.6488 83.5199Z" fill="url(#arrow_gradient)" fill-opacity="0.7"/>
<defs>
<linearGradient id="bg_gradient" x1="0" y1="83" x2="63" y2="83" gradientUnits="userSpaceOnUse">
<stop offset="0" stop-color="#1a3560" stop-opacity="0.75"/>
<stop offset="0.6" stop-color="#0a1220" stop-opacity="0.15"/>
<stop offset="1" stop-color="#080e1a" stop-opacity="0"/>
</linearGradient>
<linearGradient id="border_gradient" x1="31" y1="0" x2="31" y2="166" gradientUnits="userSpaceOnUse">
<stop offset="0" stop-color="#3C6AA0" stop-opacity="0.08"/>
<stop offset="0.2" stop-color="#5090F0" stop-opacity="0.25"/>
<stop offset="0.5" stop-color="#64B4FF" stop-opacity="0.85"/>
<stop offset="0.8" stop-color="#5090F0" stop-opacity="0.25"/>
<stop offset="1" stop-color="#3C6AA0" stop-opacity="0.08"/>
</linearGradient>
<linearGradient id="arrow_gradient" x1="26" y1="83.1001" x2="43" y2="83.1001" gradientUnits="userSpaceOnUse">
<stop stop-color="#B8D4FF"/>
<stop offset="1" stop-color="#4A6585"/>
</linearGradient>
</defs>
</svg>