<svg width="32" height="32" viewBox="0 0 32 32" fill="none" xmlns="http://www.w3.org/2000/svg">
<rect width="32" height="32" rx="16" fill="#EEEEEE"/>
<path d="M10.4634 14.0308C11.2784 11.6856 13.5068 10.0015 16.1298 10.0015C17.6424 10.0015 19.0223 10.5629 20.0784 11.4858L22.8639 8.73089C21.0727 7.03926 18.6586 6 16.0008 6C12.1114 6 8.74308 8.22138 7.08984 11.4643L10.4634 14.0308Z" fill="#E73632"/>
<path d="M10.4645 17.974C10.2491 17.3558 10.1305 16.6908 10.1305 15.9992C10.1305 15.3076 10.2479 14.6477 10.4632 14.0307L7.08969 11.4629C6.39461 12.8258 6 14.3657 6 16.0005C6 17.6352 6.39461 19.1789 7.09098 20.5418L10.4632 17.9753L10.4645 17.974Z" fill="#FBB700"/>
<path d="M19.5794 20.906C18.6032 21.5938 17.4142 21.9984 16.1298 21.9984C13.5094 21.9984 11.2823 20.3169 10.466 17.9741L7.09375 20.5407C8.74827 23.7798 12.1153 25.9999 16.0021 25.9999C18.6599 25.9999 21.0727 24.9619 22.8639 23.2715L19.582 20.906H19.5794Z" fill="#00A349"/>
<path d="M26.0009 16.0009C26.0009 15.3877 25.9429 14.7884 25.8371 14.2056L16.2969 14.2245V17.9972H21.7853C21.3675 19.1819 20.5873 20.1946 19.5788 20.9064L22.8608 23.2719C24.7926 21.4488 25.9996 18.8658 25.9996 16.0009H26.0009Z" fill="#437ABE"/>
</svg>
