<svg width="90" height="90" viewBox="0 0 90 90" fill="none" xmlns="http://www.w3.org/2000/svg">
<g clip-path="url(#clip0_61904_27405)">
<path d="M11.0472 47.1749C9.85484 47.8666 8.88867 49.3977 8.88867 50.5949C8.88867 51.7837 9.84233 53.3012 11.0232 53.9992L28.4778 64.1179C29.6702 64.8086 30.6363 64.3994 30.6363 63.2022V35.8213L11.0472 47.1749Z" fill="url(#paint0_linear_61904_27405)"/>
<path d="M56.874 0.643643L11.0472 27.2104C9.85484 27.9011 8.88867 29.4321 8.88867 30.6293V50.5936C8.88867 49.3964 9.85484 47.8654 11.0472 47.1747L30.6353 35.8179L56.8626 20.6132C58.0549 19.9214 59.0211 18.3914 59.0211 17.1942V1.56562C59.0211 0.37155 58.0601 -0.0386826 56.873 0.643643H56.874Z" fill="url(#paint1_linear_61904_27405)"/>
<path d="M79.9544 42.7313C81.1467 42.0406 82.1129 40.5095 82.1129 39.3123C82.1129 38.1235 81.1592 36.606 79.9784 35.908L62.5237 25.7893C61.3314 25.0986 60.3652 25.5078 60.3652 26.705V54.0859L79.9533 42.7302L79.9544 42.7313Z" fill="url(#paint2_linear_61904_27405)"/>
<path d="M79.9544 42.7314L60.3662 54.0881L34.139 69.2929C32.9466 69.9846 31.9805 71.5146 31.9805 72.7118V88.3415C31.9805 89.5356 32.9414 89.9458 34.1286 89.2635L79.9554 62.6967C81.1477 62.006 82.1139 60.475 82.1139 59.2778V39.3135C82.1139 40.5107 81.1477 42.0407 79.9554 42.7324L79.9544 42.7314Z" fill="url(#paint3_linear_61904_27405)"/>
<path d="M54.5319 44.8265C53.4677 42.7021 51.1831 40.9314 49.1257 38.8206C46.6576 36.288 45.5184 34.083 45.5184 34.083C45.5184 34.083 44.3793 36.2891 41.9112 38.8206C39.8538 40.9314 37.5702 42.7031 36.505 44.8265C36.109 45.5434 35.8828 46.3691 35.8828 47.2481C35.8828 47.853 35.9902 48.4328 36.1861 48.9696C36.5405 49.99 37.219 50.8921 38.1883 51.4645C38.9595 51.9585 39.8757 52.2442 40.8585 52.2442C42.5147 52.2442 43.9811 51.4321 44.8858 50.1825L45.508 49.0492C45.6727 49.4636 45.8895 49.8508 46.1511 50.2024C46.1511 50.1951 46.1501 50.1878 46.149 50.1815C47.0537 51.431 48.5212 52.2442 50.1773 52.2442C51.1602 52.2442 52.0763 51.9585 52.8476 51.4645C53.8169 50.8921 54.4954 49.99 54.8497 48.9696C55.0457 48.4328 55.153 47.853 55.153 47.2481C55.153 46.3691 54.9269 45.5444 54.5308 44.8265H54.5319Z" fill="url(#paint4_linear_61904_27405)"/>
<path d="M46.1533 50.2031C45.8916 49.8514 45.6748 49.4642 45.5101 49.0498L44.8878 50.1832C44.5887 53.6639 42.5352 55.7402 42.5352 55.7402H48.5049C48.5049 55.7402 46.4587 53.6722 46.1543 50.2031H46.1533Z" fill="url(#paint5_linear_61904_27405)"/>
</g>
<defs>
<linearGradient id="paint0_linear_61904_27405" x1="30.6353" y1="50.1355" x2="8.88763" y2="50.1355" gradientUnits="userSpaceOnUse">
<stop stop-color="#B74325"/>
<stop offset="0.64" stop-color="#AD342B"/>
</linearGradient>
<linearGradient id="paint1_linear_61904_27405" x1="8.88867" y1="25.4543" x2="59.0232" y2="25.4543" gradientUnits="userSpaceOnUse">
<stop offset="0.5" stop-color="#F96217"/>
<stop offset="1" stop-color="#F68C24"/>
</linearGradient>
<linearGradient id="paint2_linear_61904_27405" x1="60.3652" y1="39.7707" x2="82.1129" y2="39.7707" gradientUnits="userSpaceOnUse">
<stop stop-color="#B74325"/>
<stop offset="0.64" stop-color="#AD342B"/>
</linearGradient>
<linearGradient id="paint3_linear_61904_27405" x1="82.1129" y1="64.4528" x2="31.9784" y2="64.4528" gradientUnits="userSpaceOnUse">
<stop offset="0.5" stop-color="#F96217"/>
<stop offset="1" stop-color="#F68C24"/>
</linearGradient>
<linearGradient id="paint4_linear_61904_27405" x1="45.5184" y1="55.7406" x2="45.5184" y2="34.083" gradientUnits="userSpaceOnUse">
<stop offset="0.4" stop-color="#F96217"/>
<stop offset="0.9" stop-color="#F68C24"/>
</linearGradient>
<linearGradient id="paint5_linear_61904_27405" x1="45.5185" y1="49.0498" x2="45.5185" y2="55.7402" gradientUnits="userSpaceOnUse">
<stop stop-color="#AD342B"/>
<stop offset="1" stop-color="#F96217"/>
</linearGradient>
<clipPath id="clip0_61904_27405">
<rect width="74" height="90" fill="white" transform="translate(8.5)"/>
</clipPath>
</defs>
</svg>