<?xml version="1.0" encoding="UTF-8"?>
<svg id="_레이어_1" data-name="레이어_1" xmlns="http://www.w3.org/2000/svg" version="1.1" viewBox="0 0 500 200">
  <!-- Generator: Adobe Illustrator 30.2.1, SVG Export Plug-In . SVG Version: 2.1.1 Build 1)  -->
  <defs>
    <style>
      .st0 {
        fill: none;
      }

      .st1 {
        fill: #ea611e;
      }
    </style>
  </defs>
  <rect class="st0" x="-3.22" y="-.33" width="505.33" height="202.22"/>
  <g id="logo">
    <g id="LULU_복사_3">
      <path class="st1" d="M312.91,83h-16.1v51.35h31.62v-12.19h-15.52v-39.17ZM362.66,111.94c0,2.37-.56,4.24-1.67,5.62-1.11,1.38-2.83,2.07-5.15,2.07s-4-.69-5.04-2.07c-1.04-1.38-1.56-3.25-1.56-5.62v-13.91h-16.03v13.91c0,4.93.94,9.12,2.83,12.55,1.89,3.43,4.51,6.02,7.87,7.76,3.36,1.74,7.22,2.61,11.57,2.61s8.29-.87,11.82-2.61c3.53-1.74,6.31-4.34,8.34-7.8,2.03-3.46,3.05-7.63,3.05-12.51v-13.91h-16.03v13.91ZM401.75,83h-16.1v51.35h31.62v-12.19h-15.52v-39.17ZM451.49,111.94c0,2.37-.56,4.24-1.67,5.62-1.11,1.38-2.83,2.07-5.15,2.07s-4-.69-5.04-2.07c-1.04-1.38-1.56-3.25-1.56-5.62v-13.91h-16.03v13.91c0,4.93.94,9.12,2.83,12.55,1.89,3.43,4.51,6.02,7.87,7.76,3.36,1.74,7.22,2.61,11.57,2.61s8.29-.87,11.82-2.61c3.53-1.74,6.31-4.34,8.34-7.8,2.03-3.46,3.05-7.63,3.05-12.51v-13.91h-16.03v13.91ZM379.64,82.37s-12.9-2.06-16.92,9.32c0,0,10.73-1.99,16.64,3.74,0,0-2.03-5.86-8.18-7.13,0,0,2.05-4.53,8.46-5.93ZM341.36,95.12c3.61,0,6.53-2.92,6.53-6.53s-2.92-6.53-6.53-6.53-6.53,2.92-6.53,6.53,2.92,6.53,6.53,6.53ZM460.03,88.3s2.05-4.53,8.46-5.93c0,0-12.9-2.06-16.92,9.32,0,0,10.73-1.99,16.64,3.74,0,0-2.03-5.86-8.18-7.13ZM430.21,95.12c3.61,0,6.53-2.92,6.53-6.53s-2.92-6.53-6.53-6.53-6.53,2.92-6.53,6.53,2.92,6.53,6.53,6.53Z"/>
    </g>
    <g id="POKER_복사">
      <path class="st1" d="M55.12,83.06h-22.49v51.38h16.11v-16.33h6.39c4.16,0,7.7-.77,10.63-2.32,2.93-1.55,5.14-3.64,6.64-6.28,1.5-2.64,2.25-5.58,2.25-8.82,0-5.37-1.68-9.65-5.04-12.85-3.36-3.19-8.19-4.79-14.48-4.79ZM53.3,105.41h-4.57v-9.43h4.57c3.34,0,5.01,1.57,5.01,4.72s-1.67,4.72-5.01,4.72ZM185.94,83.06h-18.21l-14.73,21.63v-21.63h-16.11v51.38h16.11v-22.28l14.95,22.28h19.16l-18.87-26.78,17.7-24.6ZM191.67,134.44h34.25v-12.85h-18.14v-7.26h15.96v-12.12h-15.96v-6.31h18.14v-12.85h-34.25v51.38ZM264.37,114.77c3.58-1.16,6.32-3.07,8.24-5.73,1.91-2.66,2.87-5.71,2.87-9.14,0-3.19-.74-6.06-2.21-8.6-1.48-2.54-3.69-4.55-6.64-6.02-2.95-1.48-6.51-2.21-10.67-2.21h-23.94v51.38h16.11v-18.43h.07l9.65,18.43h17.7l-11.17-19.67ZM257.99,104.21c-.77.7-1.94,1.05-3.48,1.05h-6.39v-8.71h6.39c1.5,0,2.65.39,3.45,1.16.8.77,1.2,1.84,1.2,3.19,0,1.5-.39,2.6-1.16,3.3Z"/>
    </g>
    <path class="st1" d="M104.73,81.69c-14.78,0-26.76,11.98-26.76,26.76s11.98,26.76,26.76,26.76,26.76-11.98,26.76-26.76-11.98-26.76-26.76-26.76ZM118.64,94.96c-3.54.77-4.67,3.27-4.67,3.27,3.4.7,4.52,3.93,4.52,3.93-3.26-3.16-9.19-2.06-9.19-2.06,2.22-6.28,9.35-5.14,9.35-5.14ZM95.1,94.79c1.79,0,3.25,1.65,3.25,3.68s-1.45,3.68-3.25,3.68-3.25-1.65-3.25-3.68,1.45-3.68,3.25-3.68ZM119.54,114.3c0,4.23-1.34,7.44-4.03,9.65-2.69,2.21-6.3,3.31-10.83,3.31s-8.08-1.1-10.75-3.31c-2.67-2.21-4.01-5.42-4.01-9.65v-7.53h7.43v7.53c0,2.48.64,4.32,1.93,5.5,1.28,1.18,3.08,1.77,5.4,1.77s4.2-.59,5.49-1.77c1.29-1.18,1.94-3.02,1.94-5.5v-7.53h7.43v7.53Z"/>
  </g>
</svg>