<svg width="85" height="48" viewBox="0 0 85 48" fill="none" xmlns="http://www.w3.org/2000/svg">
<path d="M2.00778 24.7435C1.60769 24.9749 1.28369 25.4869 1.28369 25.8881C1.28369 26.2869 1.60278 26.794 2.00041 27.0278L7.85205 30.4149C8.25214 30.6463 8.57614 30.5084 8.57614 30.1072V20.9404L2.01023 24.741L2.00778 24.7435Z" fill="#B74325"/>
<path d="M17.3708 9.16677L2.00778 18.0603C1.60769 18.2917 1.28369 18.8037 1.28369 19.2049V25.888C1.28369 25.4868 1.60769 24.9748 2.00778 24.7434L8.57369 20.9403L17.3659 15.8498C17.766 15.6185 18.09 15.1065 18.09 14.7052V9.47446C18.09 9.0757 17.7685 8.93785 17.3708 9.16677Z" fill="#F96217"/>
<path d="M25.1074 23.2565C25.5075 23.0251 25.8315 22.5131 25.8315 22.1119C25.8315 21.7131 25.5124 21.2061 25.1148 20.9722L19.2632 17.5851C18.8631 17.3538 18.5391 17.4916 18.5391 17.8928V27.0596L25.105 23.259L25.1074 23.2565Z" fill="#B74325"/>
<path d="M25.1075 23.2567L18.5416 27.0597L9.74949 32.1502C9.34939 32.3816 9.02539 32.8936 9.02539 33.2948V38.528C9.02539 38.9268 9.34694 39.0647 9.74458 38.8357L25.1051 29.9422C25.5052 29.7108 25.8292 29.1988 25.8292 28.7976V22.1145C25.8292 22.5157 25.5052 23.0277 25.1051 23.2591L25.1075 23.2567Z" fill="#F96217"/>
<path d="M15.1248 26.4418C15.4537 26.4418 15.7605 26.3458 16.0207 26.1809C16.3447 25.9889 16.573 25.6861 16.6908 25.3464C16.7571 25.1667 16.7914 24.9723 16.7914 24.7704C16.7914 24.4775 16.7154 24.1993 16.5828 23.9606C16.2269 23.2492 15.4611 22.6559 14.7714 21.9495C13.9442 21.1027 13.5613 20.3643 13.5613 20.3643C13.5613 20.3643 13.1784 21.1027 12.3512 21.9495C11.6614 22.6559 10.8956 23.2492 10.5397 23.9606C10.4072 24.2018 10.3311 24.4775 10.3311 24.7704C10.3311 24.9723 10.3679 25.1667 10.4317 25.3464C10.5495 25.6886 10.7778 25.9889 11.1018 26.1809C11.3595 26.3458 11.6664 26.4418 11.9977 26.4418C12.5524 26.4418 13.0434 26.171 13.3477 25.7526C13.2471 26.9169 12.5598 27.6135 12.5598 27.6135H14.5603C14.5603 27.6135 13.8754 26.9218 13.7724 25.76C13.7724 25.76 13.7724 25.755 13.7724 25.7526C14.0767 26.171 14.5676 26.4443 15.1224 26.4443L15.1248 26.4418Z" fill="#F96217"/>
<path d="M48.3799 26.4302C48.3799 27.4776 48.6516 28.2498 49.1943 28.7476C49.7371 29.2453 50.4758 29.4956 51.4736 29.4956C52.4715 29.4956 53.244 29.2453 53.791 28.7476C54.3356 28.2498 54.6093 27.4774 54.6094 26.4302V21.5806H57.747V26.4302C57.747 28.2086 57.1814 29.5648 56.0459 30.4937C54.9102 31.4226 53.3712 31.8862 51.4736 31.8862C49.5762 31.8862 48.0628 31.4224 46.9355 30.4937C45.8083 29.5648 45.2442 28.2108 45.2441 26.4302V21.5806H48.3799V26.4302ZM75.1836 26.4302C75.1836 27.4775 75.4554 28.2498 75.998 28.7476C76.5407 29.2453 77.2796 29.4955 78.2773 29.4956C79.2752 29.4956 80.0478 29.2453 80.5947 28.7476C81.1395 28.2498 81.413 27.4776 81.4131 26.4302V21.5806H84.5508V26.4302C84.5507 28.2087 83.9852 29.5648 82.8496 30.4937C81.7139 31.4225 80.1749 31.8862 78.2773 31.8862C76.38 31.8862 74.8664 31.4224 73.7392 30.4937C72.612 29.5648 72.0479 28.2108 72.0478 26.4302V21.5806H75.1836V26.4302ZM36.7949 29.271H43.7324V31.6636H33.6699V16.1138H36.7949V29.271ZM63.5996 29.271H70.5371V31.6636H60.4746V16.1138H63.5996V29.271ZM53.3701 18.772C54.3053 16.1268 57.3164 16.606 57.3164 16.606C55.8217 16.9309 55.3437 17.9849 55.3437 17.9849C56.7653 18.2758 57.2416 19.6134 57.251 19.6401C55.8731 18.3097 53.3701 18.772 53.3701 18.772ZM80.2275 18.772C81.1628 16.1268 84.1738 16.606 84.1738 16.606C82.6791 16.9309 82.2011 17.9849 82.2011 17.9849C83.6224 18.2757 84.0987 19.6127 84.1084 19.6401C82.7305 18.3097 80.2275 18.772 80.2275 18.772ZM47.7978 16.5347C48.5556 16.5347 49.167 17.2285 49.167 18.0845C49.1668 18.9403 48.5534 19.6333 47.7978 19.6333C47.0422 19.6333 46.4289 18.9403 46.4287 18.0845C46.4287 17.2284 47.0421 16.5347 47.7978 16.5347ZM74.6533 16.5347C75.409 16.5347 76.0224 17.2284 76.0224 18.0845C76.0222 18.9403 75.4089 19.6333 74.6533 19.6333C73.8977 19.6332 73.2844 18.9403 73.2842 18.0845C73.2842 17.2285 73.8976 16.5347 74.6533 16.5347Z" fill="white"/>
</svg>
